<svg xmlns="http://www.w3.org/2000/svg" width="16" height="20" viewBox="1317 20 16 20"><path d="M1317 37v-1.5h2.1v-7.65c0-1.4.412-2.646 1.238-3.737.825-1.092 1.912-1.78 3.262-2.063v-.725c0-.383.138-.7.413-.95.275-.25.604-.375.987-.375s.713.125.988.375c.274.25.412.567.412.95v.725c1.35.283 2.442.97 3.275 2.063.833 1.091 1.25 2.337 1.25 3.737v7.65H1333V37h-16Zm8-7.375ZM1325 40c-.533 0-1-.196-1.4-.587-.4-.392-.6-.863-.6-1.413h4c0 .55-.196 1.02-.587 1.413A1.926 1.926 0 0 1 1325 40Zm-4.4-4.5h8.825v-7.65c0-1.233-.425-2.283-1.275-3.15-.85-.867-1.892-1.3-3.125-1.3s-2.28.433-3.138 1.3c-.858.867-1.287 1.917-1.287 3.15v7.65Z" data-name="notifications_FILL0_wght400_GRAD0_opsz48"/></svg>