<svg xmlns="http://www.w3.org/2000/svg" width="14.4" height="16" viewBox="1317.8 22 14.4 16"><path d="M1319 38c-.32 0-.6-.12-.84-.36s-.36-.52-.36-.84V24.4c0-.32.12-.6.36-.84s.52-.36.84-.36h1.3V22h1.3v1.2h6.8V22h1.3v1.2h1.3c.32 0 .6.12.84.36s.36.52.36.84v12.4c0 .32-.12.6-.36.84s-.52.36-.84.36h-12Zm0-1.2h12v-8.6h-12v8.6Zm0-9.8h12v-2.6h-12V27Zm0 0v-2.6V27Zm6 4.6a.774.774 0 0 1-.57-.23.774.774 0 0 1-.23-.57c0-.227.077-.417.23-.57a.774.774 0 0 1 .57-.23c.227 0 .417.077.57.23.153.153.23.343.23.57a.774.774 0 0 1-.23.57.774.774 0 0 1-.57.23Zm-3.2 0a.774.774 0 0 1-.57-.23.774.774 0 0 1-.23-.57c0-.227.077-.417.23-.57a.774.774 0 0 1 .57-.23c.227 0 .417.077.57.23.153.153.23.343.23.57a.774.774 0 0 1-.23.57.774.774 0 0 1-.57.23Zm6.4 0a.774.774 0 0 1-.57-.23.774.774 0 0 1-.23-.57c0-.227.077-.417.23-.57a.774.774 0 0 1 .57-.23c.227 0 .417.077.57.23.153.153.23.343.23.57a.774.774 0 0 1-.23.57.774.774 0 0 1-.57.23Zm-3.2 3.2a.774.774 0 0 1-.57-.23.774.774 0 0 1-.23-.57c0-.227.077-.417.23-.57a.774.774 0 0 1 .57-.23c.227 0 .417.077.57.23.153.153.23.343.23.57a.774.774 0 0 1-.23.57.774.774 0 0 1-.57.23Zm-3.2 0a.774.774 0 0 1-.57-.23.774.774 0 0 1-.23-.57c0-.227.077-.417.23-.57a.774.774 0 0 1 .57-.23c.227 0 .417.077.57.23.153.153.23.343.23.57a.774.774 0 0 1-.23.57.774.774 0 0 1-.57.23Zm6.4 0a.774.774 0 0 1-.57-.23.774.774 0 0 1-.23-.57c0-.227.077-.417.23-.57a.774.774 0 0 1 .57-.23c.227 0 .417.077.57.23.153.153.23.343.23.57a.774.774 0 0 1-.23.57.774.774 0 0 1-.57.23Z" fill="#221f1f" fill-rule="evenodd" data-name="calendar_month_FILL0_wght400_GRAD0_opsz48"/></svg>