<svg xmlns="http://www.w3.org/2000/svg" width="18.5" height="18.5" viewBox="36.749 133.749 18.5 18.5"><path d="M-22.888-12046.444a4.443 4.443 0 1 1 8.887 0 4.442 4.442 0 0 1-4.444 4.443 4.442 4.442 0 0 1-4.443-4.443Zm-10.111 4.443a1 1 0 0 1-1.002-.999v-6.89a1 1 0 0 1 1.002-.999h6.887a1 1 0 0 1 1.002 1v6.889a1 1 0 0 1-1.002.999H-33Zm11.11-11.11a1 1 0 0 1-1-1.001v-6.887a1 1 0 0 1 1-1.002H-15a1 1 0 0 1 .998 1.002v6.887a1 1 0 0 1-.999 1.002h-6.89Zm-11.11 0a1.001 1.001 0 0 1-1.002-1.001v-6.887c0-.554.448-1.002 1.002-1.002h6.887c.554 0 1.002.448 1.002 1.002v6.887c0 .553-.448 1.002-1.002 1.002H-33Z" stroke-linejoin="round" stroke-linecap="round" stroke-width="1.5" stroke="#221f1f" fill="transparent" transform="matrix(.925 0 0 .925 68.2 11291.1)" data-name="Dashboard"/></svg>