<svg xmlns="http://www.w3.org/2000/svg" width="20" height="20" viewBox="1315 20 20 20"><path d="M1325.1 35.825a.918.918 0 0 0 .675-.275.918.918 0 0 0 .275-.675.918.918 0 0 0-.275-.675.918.918 0 0 0-.675-.275.918.918 0 0 0-.675.275.918.918 0 0 0-.275.675c0 .267.092.492.275.675a.918.918 0 0 0 .675.275Zm-.875-3.65h1.475c0-.433.054-.83.163-1.187.108-.359.445-.771 1.012-1.238.517-.433.883-.858 1.1-1.275.217-.417.325-.875.325-1.375 0-.883-.287-1.592-.862-2.125-.575-.533-1.338-.8-2.288-.8-.817 0-1.538.204-2.163.613-.625.408-1.079.97-1.362 1.687l1.325.5c.183-.467.458-.83.825-1.087.367-.259.8-.388 1.3-.388.567 0 1.025.154 1.375.463.35.308.525.704.525 1.187 0 .367-.108.713-.325 1.038-.217.325-.533.662-.95 1.012-.5.433-.87.863-1.112 1.288-.242.425-.363.987-.363 1.687ZM1325 40a9.676 9.676 0 0 1-3.875-.787 10.143 10.143 0 0 1-3.187-2.15 10.143 10.143 0 0 1-2.15-3.188A9.676 9.676 0 0 1 1315 30c0-1.383.262-2.683.787-3.9a9.994 9.994 0 0 1 2.15-3.175 10.25 10.25 0 0 1 3.188-2.138A9.676 9.676 0 0 1 1325 20c1.383 0 2.683.262 3.9.787a10.099 10.099 0 0 1 3.175 2.138c.9.9 1.613 1.958 2.138 3.175A9.738 9.738 0 0 1 1335 30a9.676 9.676 0 0 1-.787 3.875 10.251 10.251 0 0 1-2.138 3.188 9.994 9.994 0 0 1-3.175 2.15 9.738 9.738 0 0 1-3.9.787Zm0-1.5c2.367 0 4.375-.83 6.025-2.487 1.65-1.659 2.475-3.663 2.475-6.013 0-2.367-.825-4.375-2.475-6.025-1.65-1.65-3.658-2.475-6.025-2.475-2.35 0-4.354.825-6.012 2.475-1.659 1.65-2.488 3.658-2.488 6.025 0 2.35.83 4.354 2.488 6.013 1.658 1.658 3.662 2.487 6.012 2.487Zm0-8.5Z" data-name="help_FILL0_wght400_GRAD0_opsz48"/></svg>