<svg xmlns="http://www.w3.org/2000/svg" width="16" height="15.525" viewBox="1317 22.237 16 15.525"><path d="M1325 29.737c-1.1 0-2-.35-2.7-1.05-.7-.7-1.05-1.6-1.05-2.7s.35-2 1.05-2.7c.7-.7 1.6-1.05 2.7-1.05s2 .35 2.7 1.05c.7.7 1.05 1.6 1.05 2.7s-.35 2-1.05 2.7c-.7.7-1.6 1.05-2.7 1.05Zm-8 8.025v-2.35c0-.633.158-1.175.475-1.625a3.05 3.05 0 0 1 1.225-1.025c1.117-.5 2.187-.875 3.213-1.125a12.986 12.986 0 0 1 3.087-.375c1.033 0 2.058.13 3.075.388 1.017.258 2.083.629 3.2 1.112.517.234.933.575 1.25 1.025.317.45.475.992.475 1.625v2.35h-16Zm1.5-1.5h13v-.85c0-.266-.08-.52-.237-.762a1.505 1.505 0 0 0-.588-.538c-1.067-.516-2.042-.87-2.925-1.062-.883-.192-1.8-.288-2.75-.288s-1.875.096-2.775.288c-.9.192-1.875.546-2.925 1.062a1.42 1.42 0 0 0-.575.538c-.15.242-.225.496-.225.762v.85Zm6.5-8.025c.65 0 1.188-.212 1.612-.637.426-.425.638-.963.638-1.613s-.212-1.187-.638-1.612c-.425-.425-.962-.638-1.612-.638-.65 0-1.188.213-1.613.638-.425.425-.637.962-.637 1.612 0 .65.212 1.188.637 1.613.426.425.963.637 1.613.637Zm0-2.25Zm0 10.275Z" data-name="person_FILL0_wght400_GRAD0_opsz48"/></svg>