<svg xmlns="http://www.w3.org/2000/svg" width="20" height="18" viewBox="1315 21 20 18"><path d="M1329.45 25.8v-3.3h-8.9v3.3h-1.5V21h11.9v4.8h-1.5Zm-12.95 1.5h17-17Zm14.975 2.375a.72.72 0 0 0 .525-.225.72.72 0 0 0 .225-.525.72.72 0 0 0-.225-.525.72.72 0 0 0-.525-.225.72.72 0 0 0-.525.225.72.72 0 0 0-.225.525c0 .2.075.375.225.525a.72.72 0 0 0 .525.225Zm-2.025 7.825v-4.8h-8.9v4.8h8.9Zm1.5 1.5h-11.9v-4.4H1315v-6.15c0-.75.254-1.38.762-1.887.509-.509 1.138-.763 1.888-.763h14.7c.75 0 1.38.254 1.888.762.508.509.762 1.138.762 1.888v6.15h-4.05V39Zm2.55-5.9v-4.65c0-.333-.108-.608-.325-.825a1.118 1.118 0 0 0-.825-.325h-14.7c-.333 0-.608.108-.825.325a1.118 1.118 0 0 0-.325.825v4.65h2.55v-1.9h11.9v1.9h2.55Z" fill="#221f1f" fill-rule="evenodd" data-name="print_FILL0_wght400_GRAD0_opsz48"/></svg>