<svg xmlns="http://www.w3.org/2000/svg" width="24" height="24" viewBox="517 276.999 24 24"><g data-name="_09-Round-Chart"><g data-name="g2606"><path d="M526.88 299.47a10.655 10.655 0 0 1-8.35-8.35h4.286a6.543 6.543 0 0 0 1.563 2.501 6.542 6.542 0 0 0 2.501 1.563v4.286Zm.874-5.492a5.118 5.118 0 0 1-3.732-3.732.703.703 0 0 0-.682-.532h-5.637a.703.703 0 0 0-.697.79 12.126 12.126 0 0 0 3.449 7.04 12.127 12.127 0 0 0 7.041 3.45.703.703 0 0 0 .79-.698v-5.636a.703.703 0 0 0-.532-.682" fill="#3e77aa" fill-rule="evenodd" data-name="path2604"/></g><g data-name="g2610"><path d="M531.12 299.47v-4.286a6.546 6.546 0 0 0 2.502-1.563 6.543 6.543 0 0 0 1.563-2.501h4.286a10.656 10.656 0 0 1-8.35 8.35m9.176-9.756h-5.637a.703.703 0 0 0-.682.532 5.12 5.12 0 0 1-3.731 3.732.703.703 0 0 0-.533.682v5.636a.703.703 0 0 0 .79.698 12.127 12.127 0 0 0 7.041-3.45 12.128 12.128 0 0 0 3.45-7.04.703.703 0 0 0-.698-.79" fill="#3e77aa" fill-rule="evenodd" data-name="path2608"/></g><g data-name="g2614"><path d="M526.88 282.815a6.545 6.545 0 0 0-2.502 1.563 6.54 6.54 0 0 0-1.562 2.5h-4.287a10.656 10.656 0 0 1 8.351-8.35v4.287Zm1.169-5.64a.703.703 0 0 0-.553-.17 12.129 12.129 0 0 0-7.041 3.449 12.126 12.126 0 0 0-3.45 7.041.703.703 0 0 0 .698.79h5.637c.323 0 .604-.22.682-.533a5.118 5.118 0 0 1 3.732-3.731.703.703 0 0 0 .532-.682v-5.637a.703.703 0 0 0-.237-.527" fill="#3e77aa" fill-rule="evenodd" data-name="path2612"/></g><g data-name="g2618"><path d="M531.12 278.528a10.656 10.656 0 0 1 8.351 8.351h-4.286a6.544 6.544 0 0 0-1.563-2.501 6.543 6.543 0 0 0-2.502-1.563v-4.287Zm-.873 5.493a5.118 5.118 0 0 1 3.731 3.732c.078.313.36.532.682.532h5.637a.703.703 0 0 0 .698-.79 12.127 12.127 0 0 0-3.45-7.041 12.129 12.129 0 0 0-7.04-3.45.704.704 0 0 0-.79.698v5.637c0 .323.219.604.532.682" fill="#3e77aa" fill-rule="evenodd" data-name="path2616"/></g></g></svg>