<svg xmlns="http://www.w3.org/2000/svg" width="18" height="18" viewBox="1316 21 18 18"><path d="m1322.93 39-.45-2.835a6.027 6.027 0 0 1-.9-.428 6.183 6.183 0 0 1-.833-.562l-2.655 1.215L1316 32.7l2.43-1.777a2.676 2.676 0 0 1-.056-.462 10.74 10.74 0 0 1-.012-.461c0-.135.004-.289.012-.461.007-.173.026-.326.056-.462L1316 27.3l2.092-3.69 2.655 1.215c.24-.195.518-.383.833-.562.315-.18.615-.315.9-.406l.45-2.857h4.14l.45 2.835c.285.105.589.244.911.416.323.173.597.364.822.574l2.655-1.215L1334 27.3l-2.43 1.733c.03.15.049.31.056.483a11.178 11.178 0 0 1 0 .956 3.134 3.134 0 0 1-.056.473L1334 32.7l-2.092 3.69-2.655-1.215c-.24.195-.514.386-.822.574a3.92 3.92 0 0 1-.911.416l-.45 2.835h-4.14Zm2.07-6.075c.81 0 1.5-.285 2.07-.855.57-.57.855-1.26.855-2.07 0-.81-.285-1.5-.855-2.07a2.82 2.82 0 0 0-2.07-.855c-.81 0-1.5.285-2.07.855a2.82 2.82 0 0 0-.855 2.07c0 .81.285 1.5.855 2.07.57.57 1.26.855 2.07.855Zm0-1.35c-.435 0-.806-.154-1.114-.461a1.518 1.518 0 0 1-.461-1.114c0-.435.154-.806.461-1.114a1.518 1.518 0 0 1 1.114-.461c.435 0 .806.154 1.114.461.307.308.461.679.461 1.114 0 .435-.154.806-.461 1.114a1.518 1.518 0 0 1-1.114.461Zm0-1.575Zm-.99 7.65h1.98l.315-2.52c.495-.12.964-.307 1.406-.563a5.767 5.767 0 0 0 1.204-.922l2.385 1.035.9-1.62-2.115-1.553a9.51 9.51 0 0 0 .146-.753c.038-.248.056-.499.056-.754a6.26 6.26 0 0 0-.044-.754 4.656 4.656 0 0 0-.158-.753l2.115-1.553-.9-1.62-2.385 1.035a5.015 5.015 0 0 0-1.17-.979 3.795 3.795 0 0 0-1.44-.506l-.315-2.52h-1.98l-.315 2.52c-.51.105-.986.285-1.429.54-.442.255-.836.57-1.181.945l-2.385-1.035-.9 1.62 2.115 1.553c-.06.254-.109.506-.146.753a5.025 5.025 0 0 0 0 1.508c.037.247.086.499.146.753l-2.115 1.553.9 1.62 2.385-1.035c.36.36.761.667 1.204.922.442.256.911.443 1.406.563l.315 2.52Z" data-name="settings_FILL0_wght400_GRAD0_opsz48"/></svg>