<svg xmlns="http://www.w3.org/2000/svg" width="24.143" height="24" viewBox="516.928 277 24.143 24"><g data-name="volumethreebarsgraphicoutline_112574"><g data-name="Group 28688"><g data-name="Group 28680"><path d="M540.179 301h-22.5a.75.75 0 0 1 0-1.5h22.5a.75.75 0 0 1 0 1.5Z" fill="#3e77aa" fill-rule="evenodd" data-name="Path 47389"/></g><g data-name="Group 28681"><path d="M524.196 295.4a2.6 2.6 0 0 1-2.6 2.6h-1.926a2.6 2.6 0 0 1-2.6-2.6v-7.55a2.6 2.6 0 0 1 2.6-2.6h1.927a2.6 2.6 0 0 1 2.6 2.6l-.001 7.55Zm-1.5-7.55a1.1 1.1 0 0 0-1.1-1.1h-1.926a1.1 1.1 0 0 0-1.1 1.1v7.55a1.1 1.1 0 0 0 1.1 1.1h1.927a1.1 1.1 0 0 0 1.1-1.1l-.001-7.55Z" fill="#3e77aa" fill-rule="evenodd" data-name="Path 47390"/></g><g data-name="Group 28682"><path d="M532.821 295.4a2.6 2.6 0 0 1-2.6 2.6h-1.926a2.6 2.6 0 0 1-2.6-2.6v-11.675a2.6 2.6 0 0 1 2.6-2.6h1.926a2.6 2.6 0 0 1 2.6 2.6V295.4Zm-1.5-11.675a1.1 1.1 0 0 0-1.1-1.1h-1.926a1.1 1.1 0 0 0-1.1 1.1V295.4a1.1 1.1 0 0 0 1.1 1.1h1.926a1.1 1.1 0 0 0 1.1-1.1v-11.676Z" fill="#3e77aa" fill-rule="evenodd" data-name="Path 47391"/></g><g data-name="Group 28687"><g data-name="Group 28685"><g data-name="Group 28683"><path d="M536.5 282.625c-.208 0-.304-.168-.304-.375v-2.265c0-.735.603-.735.85-.735h.883a.375.375 0 1 1 0 .75h-.883c-.126 0-.2.006-.242.013l.035 2.237c0 .207-.132.375-.34.375Z" fill="#3e77aa" fill-rule="evenodd" data-name="Path 47392"/></g><g data-name="Group 28684"><path d="M536.429 283.443a.392.392 0 0 1-.267-.11.392.392 0 0 1-.108-.265c0-.098.04-.195.108-.267a.389.389 0 0 1 .533 0 .386.386 0 0 1 .109.267c0 .097-.041.195-.11.266a.399.399 0 0 1-.265.109Z" fill="#3e77aa" fill-rule="evenodd" data-name="Path 47393"/></g></g><g data-name="Group 28686"><path d="M541.071 295.4a2.6 2.6 0 0 1-2.6 2.6h-1.926a2.6 2.6 0 0 1-2.6-2.6v-15.8a2.6 2.6 0 0 1 2.6-2.6h1.927a2.6 2.6 0 0 1 2.6 2.6v15.8Zm-1.5-15.8a1.1 1.1 0 0 0-1.099-1.1h-1.926a1.1 1.1 0 0 0-1.1 1.1v15.8a1.1 1.1 0 0 0 1.1 1.1h1.926a1.1 1.1 0 0 0 1.1-1.1v-15.8Z" fill="#3e77aa" fill-rule="evenodd" data-name="Path 47394"/></g></g></g></g></svg>