<svg xmlns="http://www.w3.org/2000/svg" width="24" height="24.143" viewBox="517 276.928 24 24.143"><g data-name="volumethreebarsgraphicoutline_112574"><g data-name="Group 28688"><g data-name="Group 28680"><path d="M517 300.179v-22.5a.75.75 0 0 1 1.5 0v22.5a.75.75 0 0 1-1.5 0Z" fill="#3e77aa" fill-rule="evenodd" data-name="Path 47389"/></g><g data-name="Group 28681"><path d="M522.6 284.196a2.6 2.6 0 0 1-2.6-2.6v-1.926a2.6 2.6 0 0 1 2.6-2.6h7.55a2.6 2.6 0 0 1 2.6 2.6v1.927a2.6 2.6 0 0 1-2.6 2.6l-7.55-.001Zm7.55-1.5a1.1 1.1 0 0 0 1.1-1.1v-1.926a1.1 1.1 0 0 0-1.1-1.1h-7.55a1.1 1.1 0 0 0-1.1 1.1v1.927a1.1 1.1 0 0 0 1.1 1.1l7.55-.001Z" fill="#3e77aa" fill-rule="evenodd" data-name="Path 47390"/></g><g data-name="Group 28682"><path d="M522.6 292.821a2.6 2.6 0 0 1-2.6-2.6v-1.926a2.6 2.6 0 0 1 2.6-2.6h11.675a2.6 2.6 0 0 1 2.6 2.6v1.926a2.6 2.6 0 0 1-2.6 2.6H522.6Zm11.675-1.5a1.1 1.1 0 0 0 1.1-1.1v-1.926a1.1 1.1 0 0 0-1.1-1.1H522.6a1.1 1.1 0 0 0-1.1 1.1v1.926a1.1 1.1 0 0 0 1.1 1.1h11.676Z" fill="#3e77aa" fill-rule="evenodd" data-name="Path 47391"/></g><g data-name="Group 28687"><g data-name="Group 28685"><g data-name="Group 28683"><path d="M535.375 296.5c0-.208.168-.304.375-.304h2.264c.736 0 .736.604.736.85v.883a.375.375 0 1 1-.75 0v-.883c0-.126-.006-.2-.013-.242l-2.237.035c-.207 0-.375-.132-.375-.34Z" fill="#3e77aa" fill-rule="evenodd" data-name="Path 47392"/></g><g data-name="Group 28684"><path d="M534.557 296.429c0-.099.042-.196.11-.267a.392.392 0 0 1 .265-.108c.098 0 .195.04.267.108a.389.389 0 0 1 0 .533.386.386 0 0 1-.267.109.392.392 0 0 1-.266-.11.399.399 0 0 1-.109-.265Z" fill="#3e77aa" fill-rule="evenodd" data-name="Path 47393"/></g></g><g data-name="Group 28686"><path d="M522.6 301.071a2.6 2.6 0 0 1-2.6-2.6v-1.926a2.6 2.6 0 0 1 2.6-2.6h15.8a2.6 2.6 0 0 1 2.6 2.6v1.927a2.6 2.6 0 0 1-2.6 2.6h-15.8Zm15.8-1.5a1.1 1.1 0 0 0 1.1-1.099v-1.926a1.1 1.1 0 0 0-1.1-1.1h-15.8a1.1 1.1 0 0 0-1.1 1.1v1.926a1.1 1.1 0 0 0 1.1 1.1h15.8Z" fill="#3e77aa" fill-rule="evenodd" data-name="Path 47394"/></g></g></g></g></svg>